<svg aria-hidden="true" fill="none" style="position: absolute; width: 0; height: 0; overflow: hidden;" version="1.1" xmlns="http://www.w3.org/2000/svg" xmlns:xlink="http://www.w3.org/1999/xlink">
    <defs>

        <!-- Arrow Right Icon -->
        <symbol id="arrow-right-icon" viewBox="0 0 58 32">
            <path fill="#fff" style="fill: var(--color1, #fff)" d="M40 2.144l17.6 13.856-17.6 13.856v-11.456h-40v-4.8h40v-11.456z"></path>
        </symbol>

        <!-- Favicon -->
        <symbol id="favicon" viewBox="0 0 246 32">
            <path fill="#fff" style="fill: var(--color1, #fff)" d="M20.668 18.151h-14.002v13.235h-6.666v-31.386h22.682v5.483h-16.017v7.137h14.002v5.53z"></path>
            <path fill="#fff" style="fill: var(--color1, #fff)" d="M34.18 26.848c3.788 0 5.706-2.363 5.706-7.090s-1.918-7.043-5.706-7.043c-3.788 0-5.707 2.316-5.707 7.043s1.918 7.090 5.707 7.090zM34.18 32c-7.625 0-12.132-5.010-12.132-12.242 0-7.374 4.652-12.242 12.132-12.242 7.385 0 11.988 4.821 11.988 12.242 0 7.374-4.652 12.242-11.988 12.242z"></path>
            <path fill="#fff" style="fill: var(--color1, #fff)" d="M63.387 22.972h6.282c-0.671 5.388-5.131 9.028-10.838 9.028-6.426 0-10.838-4.207-10.838-12.526s4.412-11.959 11.029-11.959c6.138 0 10.31 3.45 10.694 8.934h-6.282c-0.336-2.411-2.11-3.829-4.46-3.829-2.637 0-4.795 1.654-4.795 6.712s2.158 7.515 4.604 7.515 4.364-1.371 4.604-3.876z"></path>
            <path fill="#fff" style="fill: var(--color1, #fff)" d="M92.756 31.386h-5.898v-3.262c-1.63 2.647-4.076 3.876-7.337 3.876-4.699 0-8.008-3.451-8.008-8.555v-15.315h6.234v14.369c0 2.931 1.343 4.349 3.98 4.349 3.165 0 4.843-2.222 4.843-5.294v-13.424h6.186v23.256z"></path>
            <path fill="#fff" style="fill: var(--color1, #fff)" d="M115.678 15.173h-5.994c-0.336-2.269-1.582-3.072-4.412-3.072-2.35 0-3.693 0.567-3.693 1.938s1.295 1.938 3.836 2.647c2.685 0.756 5.227 1.276 7.049 1.985 2.494 0.993 3.884 2.6 3.884 5.625 0 4.821-3.596 7.705-10.31 7.705-7.241 0-11.269-3.356-11.365-8.083h6.426c0 2.174 1.87 3.451 4.891 3.451 2.206 0 4.172-0.662 4.172-2.411 0-1.654-1.774-2.174-3.788-2.647-3.98-0.945-6.186-1.607-7.864-2.647-2.206-1.371-2.973-3.167-2.973-5.247 0-3.923 2.733-6.901 9.926-6.901 6.809 0 9.878 2.647 10.214 7.657z"></path>
            <path fill="#fff" style="fill: var(--color1, #fff)" d="M124.63 31.386h-6.665v-6.381h6.665v6.381z"></path>
            <path fill="#fff" style="fill: var(--color1, #fff)" d="M147.577 18.151h-14.002v13.235h-6.666v-31.386h22.682v5.483h-16.016v7.137h14.002v5.53z"></path>
            <path fill="#fff" style="fill: var(--color1, #fff)" d="M156.561 31.386h-6.234v-23.256h5.85v2.789c2.062-3.12 4.46-3.403 7.001-3.403h0.815v6.287c-0.575-0.095-1.151-0.142-1.726-0.142-3.836 0-5.707 1.891-5.707 5.625v12.101z"></path>
            <path fill="#fff" style="fill: var(--color1, #fff)" d="M178.854 22.547l0.048-2.553c-0.623 0.614-1.726 0.945-4.028 1.371-3.549 0.662-4.699 1.654-4.699 3.64 0 1.749 1.055 2.6 3.021 2.6 3.213 0 5.611-2.316 5.659-5.058zM185.135 31.386h-5.802c-0.192-0.567-0.336-1.371-0.384-2.080-1.487 1.607-3.98 2.694-7.145 2.694-5.371 0-7.864-2.6-7.864-6.381 0-6.712 4.556-7.468 10.837-8.319 3.117-0.425 3.98-1.040 3.98-2.647 0-1.513-1.534-2.411-3.98-2.411-2.829 0-3.98 1.371-4.268 3.451h-5.802c0.096-4.821 2.781-8.177 10.358-8.177 7.481 0 10.070 3.309 10.070 9.17v14.7z"></path>
            <path fill="#fff" style="fill: var(--color1, #fff)" d="M221.644 31.386h-6.090v-14.086c0-2.789-1.486-4.774-3.692-4.774-2.302 0-3.98 2.127-3.98 4.963v13.897h-6.234v-13.991c0-3.734-1.008-4.679-3.741-4.679-2.494 0-3.788 1.513-3.788 4.538v14.133h-6.234v-23.256h5.85v3.403c1.582-3.072 3.788-4.018 6.905-4.018 3.214 0 4.748 0.993 6.57 3.687 1.294-2.552 3.404-3.687 6.378-3.687 4.748 0 8.056 3.403 8.056 7.752v16.118z"></path>
            <path fill="#fff" style="fill: var(--color1, #fff)" d="M229.936 17.489h9.638c-0.096-3.451-2.398-5.105-4.844-5.105-2.492 0-4.554 1.891-4.794 5.105zM246 21.365h-16.256c0.192 3.498 2.206 5.767 5.274 5.767 2.014 0 3.788-0.993 4.22-2.6h6.426c-1.438 4.774-5.322 7.468-10.358 7.468-7.864 0-11.796-4.254-11.796-12.668 0-7.185 4.172-11.817 11.412-11.817 7.242 0 11.078 4.632 11.078 13.849z"></path>
        </symbol>

        <!-- Star Icon -->
        <symbol id="hero-star-icon" viewBox="0 0 32 32">
            <path fill="#bea69e" style="fill: var(--color2, #bea69e)" d="M16 0c8.837 0 16 7.163 16 16s-7.163 16-16 16c-8.837 0-16-7.163-16-16s7.163-16 16-16z"></path>
            <path fill="none" stroke="#121212" style="stroke: var(--color3, #121212)" stroke-linejoin="round" stroke-linecap="round" stroke-miterlimit="4" stroke-width="1.0909" d="M16 9.939l1.873 3.794 4.188 0.612-3.030 2.952 0.715 4.17-3.745-1.97-3.745 1.97 0.715-4.17-3.030-2.951 4.188-0.612 1.873-3.794z"></path>
        </symbol>

        <!-- Camera Icon -->
        <symbol id="camera-icon" viewBox="0 0 32 32">
            <path fill="#1d1d1d" style="fill: var(--color1, #1d1d1d)" d="M32 16c0 8.837-7.163 16-16 16s-16-7.163-16-16c0-8.837 7.163-16 16-16s16 7.163 16 16z"></path>
            <path fill="currentColor" style="fill: var(--color2, currentColor)" opacity="0.4" d="M18.5 16.5c0 0.663-0.263 1.299-0.732 1.768s-1.105 0.732-1.768 0.732-1.299-0.263-1.768-0.732c-0.469-0.469-0.732-1.105-0.732-1.768s0.263-1.299 0.732-1.768c0.469-0.469 1.105-0.732 1.768-0.732s1.299 0.263 1.768 0.732c0.469 0.469 0.732 1.105 0.732 1.768z"></path>
            <path fill="currentColor" style="fill: var(--color2, currentColor)" opacity="0.4" d="M10 12c-0.53 0-1.039 0.211-1.414 0.586s-0.586 0.884-0.586 1.414v6c0 0.53 0.211 1.039 0.586 1.414s0.884 0.586 1.414 0.586h12c0.53 0 1.039-0.211 1.414-0.586s0.586-0.884 0.586-1.414v-6c0-0.53-0.211-1.039-0.586-1.414s-0.884-0.586-1.414-0.586h-1.172c-0.53-0-1.039-0.211-1.414-0.586l-0.828-0.828c-0.375-0.375-0.884-0.586-1.414-0.586h-2.344c-0.53 0-1.039 0.211-1.414 0.586l-0.828 0.828c-0.375 0.375-0.884 0.586-1.414 0.586h-1.172zM10.5 14c-0.133 0-0.26-0.053-0.354-0.146s-0.146-0.221-0.146-0.354 0.053-0.26 0.146-0.354c0.094-0.094 0.221-0.146 0.354-0.146s0.26 0.053 0.354 0.146c0.094 0.094 0.146 0.221 0.146 0.354s-0.053 0.26-0.146 0.354c-0.094 0.094-0.221 0.146-0.354 0.146zM19.5 16.5c0 0.928-0.369 1.819-1.025 2.475s-1.547 1.025-2.475 1.025c-0.928 0-1.819-0.369-2.475-1.025s-1.025-1.547-1.025-2.475c0-0.928 0.369-1.819 1.025-2.475s1.547-1.025 2.475-1.025c0.928 0 1.819 0.369 2.475 1.025s1.025 1.547 1.025 2.475z"></path>
        </symbol>

        <!-- Arrow Diagonal Icon -->
        <symbol id="arrow-diagonal-icon" viewBox="0 0 32 32">
            <path d="M32 16c0 8.837-7.163 16-16 16s-16-7.163-16-16c0-8.837 7.163-16 16-16s16 7.163 16 16z"></path>
            <path fill="none" stroke="currentColor" style="stroke: var(--color5, currentColor)" stroke-linejoin="round" stroke-linecap="round" stroke-miterlimit="4" stroke-width="1.3" d="M11 21l10-10"></path>
            <path fill="none" stroke="currentColor" style="stroke: var(--color5, currentColor)" stroke-linejoin="round" stroke-linecap="round" stroke-miterlimit="4" stroke-width="1.3" d="M14.333 11h6.667v6.667"></path>
        </symbol>

        <!-- Navbar Icon -->
        <symbol id="nav-icon" viewBox="0 0 47 32">
            <path fill="none" stroke="#fff" style="stroke: var(--color1, #fff)" stroke-linejoin="miter" stroke-linecap="round" stroke-miterlimit="4" stroke-width="2.9091" d="M8.538 5.333h36.553"></path>
            <path fill="none" stroke="#fff" style="stroke: var(--color1, #fff)" stroke-linejoin="miter" stroke-linecap="round" stroke-miterlimit="4" stroke-width="2.9091" d="M8.538 24.727h36.553"></path>
            <path fill="none" stroke="#fff" style="stroke: var(--color1, #fff)" stroke-linejoin="miter" stroke-linecap="round" stroke-miterlimit="4" stroke-width="2.9091" d="M19.668 15.030h25.423"></path>
        </symbol>

        <!-- Star Icon -->
        <symbol id="reviews-star-icon" viewBox="0 0 192 32">
            <path fill="#bea69e" style="fill: var(--color2, #bea69e); stroke: var(--color2, #bea69e)" stroke="#bea69e" stroke-linejoin="round" stroke-linecap="round" stroke-miterlimit="4" stroke-width="3" d="M16 4l3.708 7.899 8.292 1.274-6 6.145 1.416 8.681-7.416-4.101-7.416 4.101 1.416-8.681-6-6.145 8.292-1.274 3.708-7.899z"></path>
            <path fill="#bea69e" style="fill: var(--color2, #bea69e); stroke: var(--color2, #bea69e)" stroke="#bea69e" stroke-linejoin="round" stroke-linecap="round" stroke-miterlimit="4" stroke-width="3" d="M56 4l3.708 7.899 8.292 1.274-6 6.145 1.416 8.681-7.416-4.101-7.416 4.101 1.416-8.681-6-6.145 8.292-1.274 3.708-7.899z"></path>
            <path fill="#bea69e" style="fill: var(--color2, #bea69e); stroke: var(--color2, #bea69e)" stroke="#bea69e" stroke-linejoin="round" stroke-linecap="round" stroke-miterlimit="4" stroke-width="3" d="M96 4l3.708 7.899 8.292 1.274-6 6.145 1.416 8.681-7.416-4.101-7.416 4.101 1.416-8.681-6-6.145 8.292-1.274 3.708-7.899z"></path>
            <path fill="#bea69e" style="fill: var(--color2, #bea69e); stroke: var(--color2, #bea69e)" stroke="#bea69e" stroke-linejoin="round" stroke-linecap="round" stroke-miterlimit="4" stroke-width="3" d="M136 4l3.708 7.899 8.292 1.274-6 6.145 1.416 8.681-7.416-4.101-7.416 4.101 1.416-8.681-6-6.145 8.292-1.274 3.708-7.899z"></path>
            <path fill="rgba(255, 255, 255, 0.2)" style="fill: var(--color2, rgba(255, 255, 255, 0.2)); stroke: var(--color2, #414141)" stroke="#414141" stroke-linejoin="round" stroke-linecap="round" stroke-miterlimit="4" stroke-width="3" d="M176 4l3.708 7.899 8.292 1.274-6 6.145 1.416 8.681-7.416-4.101-7.416 4.101 1.416-8.681-6-6.145 8.292-1.274 3.708-7.899z"></path>
        </symbol>

        <!-- line icon -->
        <symbol id="line-icon" width="1440" height="2" viewBox="0 0 1440 2" fill="none">
            <path d="M0 1H1440" stroke="white" stroke-opacity="0.2" />
        </symbol>

        <!-- X Icon -->
        <symbol id="x-icon" viewBox="0 0 32 32">
            <path stroke-linejoin="round" stroke-linecap="round" stroke-miterlimit="4" stroke-width="3" d="M24 8l-16 16"></path>
            <path stroke-linejoin="round" stroke-linecap="round" stroke-miterlimit="4" stroke-width="3" d="M8 8l16 16"></path>
        </symbol>

        <!-- Footer Line Icon -->
        <symbol id="footer-line-icon" width="1440" height="2" viewBox="0 0 1440 2" fill="none">
            <path d="M0 1H1440" stroke="white" stroke-opacity="0.2" />
        </symbol>
    </defs>
</svg>
